<?xml version="1.0" encoding="UTF-8" standalone="no" ?>
<!DOCTYPE svg PUBLIC "-//W3C//DTD SVG 1.1//EN" "http://www.w3.org/Graphics/SVG/1.1/DTD/svg11.dtd">
<svg xmlns="http://www.w3.org/2000/svg" xmlns:xlink="http://www.w3.org/1999/xlink" version="1.1" width="1500" height="400" viewBox="0 0 1500 400" xml:space="preserve">
<desc>Created with Fabric.js 4.6.0</desc>
<defs>
</defs>
<g transform="matrix(1 0 0 1 750 200)" id="kaD0zC8rHqwGJxJWoRman"  >
<g style="" vector-effect="non-scaling-stroke"   >
		<g transform="matrix(1 0 0 1 -604.38 0)" id="DuksTeG7ENdBMD4uJdvNk"  >
<path style="stroke: rgb(250,109,49); stroke-width: 0; stroke-dasharray: none; stroke-linecap: butt; stroke-dashoffset: 0; stroke-linejoin: miter; stroke-miterlimit: 4; fill: rgb(61,121,245); fill-rule: nonzero; opacity: 1;" vector-effect="non-scaling-stroke"  transform=" translate(-130, -130)" d="M 0 55.15433 C 0 24.693440000000002 24.69343 0 55.15433 0 L 204.84566999999998 0 C 235.30656 0 260 24.69343 260 55.15433 L 260 204.84566999999998 C 260 235.30656 235.30657 260 204.84566999999998 260 L 55.15432999999999 260 C 24.69343999999999 260 -1.4210854715202004e-14 235.30657 -1.4210854715202004e-14 204.84566999999998 z M 206.36363 49.99999 L 53.636359999999996 49.99999 C 51.626419999999996 49.99999 50 51.62641 50 53.63634999999999 L 50 75.45452999999999 C 50 77.46446999999999 51.62642 79.09088999999999 53.636359999999996 79.09088999999999 L 79.08024999999999 79.09088999999999 C 78.89559 112.52129 76.20383 190.51489999999998 65.34089999999999 204.09089 C 64.46731999999999 205.18464 64.30041999999999 206.67967 64.90410999999999 207.94032 C 65.51135 209.19742000000002 66.78265999999999 209.99998000000002 68.18180999999998 209.99998000000002 L 89.99998999999998 209.99998000000002 C 91.10438999999998 209.99998000000002 92.14842999999998 209.49927000000002 92.84089999999998 208.63634000000002 C 106.72583999999998 191.27483 108.05396999999998 100.85225000000001 108.17115999999997 79.09089000000003 L 151.81817999999998 79.09089000000003 L 151.81817999999998 184.54544000000004 C 151.81817999999998 198.57953000000003 163.23862999999997 209.99999000000005 177.27273 209.99999000000005 L 199.09091 209.99999000000005 C 200.25923 209.99999000000005 201.35653000000002 209.43891000000005 202.0419 208.49076000000005 C 202.72372 207.54261000000005 202.91193 206.32102000000006 202.53906 205.21306000000004 L 195.26633 183.39488000000003 C 194.77272000000002 181.91050000000004 193.38423 180.90908000000002 191.81818 180.90908000000002 L 184.55611000000002 180.91263 L 184.55256000000003 180.91263 C 182.54972000000004 180.91263 180.91620000000003 179.28266000000002 180.91620000000003 177.27982 L 180.90910000000002 79.0909 L 206.36365000000004 79.0909 C 208.37359000000004 79.0909 210.00001000000003 77.46448000000001 210.00001000000003 75.45454000000001 L 210.00001000000003 53.63636000000001 C 210.00001000000003 51.62642000000001 208.37359000000004 50.000000000000014 206.36365000000004 50.000000000000014 z" stroke-linecap="round" />
</g>
		<g transform="matrix(1.16 0 0 1.16 154.41 0)" id="oF_daCAFUgzusQlOBRojy"  >
<path style="stroke: none; stroke-width: 1; stroke-dasharray: none; stroke-linecap: butt; stroke-dashoffset: 0; stroke-linejoin: miter; stroke-miterlimit: 4; fill: rgb(61,121,245); fill-rule: nonzero; opacity: 1;" vector-effect="non-scaling-stroke"  transform=" translate(0, 0)" d="M -384.125 71.25 L -384.125 80.75 L -464.875 80.75 L -464.875 71.25 C -457.70833 71.25 -452.375 70.70833 -448.875 69.625 C -445.375 68.54167 -443.08333 66.16667 -442 62.5 C -440.91667 58.833330000000004 -440.375 53.25 -440.375 45.75 L -440.375 45.75 L -440.375 -70.5 L -453.375 -70.5 C -462.54167 -70.5 -469.41667 -69.5 -474 -67.5 C -478.58333 -65.5 -481.875 -61.958330000000004 -483.875 -56.875 C -485.875 -51.791669999999996 -487.79167 -44.75 -489.625 -35.75 L -489.625 -35.75 L -500.375 -35.75 L -497.625 -83.5 L -350.625 -83.5 L -348.375 -35.75 L -359.125 -35.75 C -360.95833 -44.75 -362.91667 -51.791669999999996 -365 -56.875 C -367.08333 -61.958330000000004 -370.375 -65.5 -374.875 -67.5 C -379.375 -69.5 -386.29167 -70.5 -395.625 -70.5 L -395.625 -70.5 L -408.375 -70.5 L -408.375 45.75 C -408.375 53.25 -407.79167 58.833330000000004 -406.625 62.5 C -405.45833 66.16667 -403.16667 68.54167 -399.75 69.625 C -396.33333 70.70833 -391.125 71.25 -384.125 71.25 z M -280.875 83.5 L -280.875 83.5 C -292.375 83.5 -302.25 81.125 -310.5 76.375 C -318.75 71.625 -325.125 64.66667 -329.625 55.5 C -334.125 46.333330000000004 -336.375 35.166669999999996 -336.375 22 L -336.375 22 C -336.375 7.66667 -333.79167 -4.08333 -328.625 -13.25 C -323.45833 -22.41667 -316.5 -29.25 -307.75 -33.75 C -299 -38.25 -289.45833 -40.5 -279.125 -40.5 L -279.125 -40.5 C -264.125 -40.5 -252.04167 -35.708330000000004 -242.875 -26.125 C -233.70833 -16.54167 -228.95833 -2.58333 -228.625 15.75 L -228.625 15.75 L -308.375 15.75 L -308.625 4.75 L -262.125 4.75 C -262.125 -1.75 -262.83333 -7.625 -264.25 -12.875 C -265.66667 -18.125 -267.83333 -22.25 -270.75 -25.25 C -273.66667 -28.25 -277.625 -29.75 -282.625 -29.75 L -282.625 -29.75 C -291.125 -29.75 -297.16667 -26.25 -300.75 -19.25 C -304.33333 -12.25 -306.125 -1.5833300000000001 -306.125 12.75 L -306.125 12.75 C -306.125 23.91667 -304.625 32.916669999999996 -301.625 39.75 C -298.625 46.583330000000004 -294.45833 51.583330000000004 -289.125 54.75 C -283.79167 57.916669999999996 -277.54167 59.5 -270.375 59.5 L -270.375 59.5 C -263.70833 59.5 -258.16667 58.75 -253.75 57.25 C -249.33333 55.75 -245.5 53.625 -242.25 50.875 C -239 48.125 -236.04167 45.083330000000004 -233.375 41.75 L -233.375 41.75 L -227.375 45.75 C -229.875 50.583330000000004 -232.58333 55.25 -235.5 59.75 C -238.41667 64.25 -241.83333 68.25 -245.75 71.75 C -249.66667 75.25 -254.45833 78.08333 -260.125 80.25 C -265.79167 82.41667 -272.70833 83.5 -280.875 83.5 z M -153.625 83.25 L -153.625 83.25 C -172.45833 83.25 -186.95833 78.08333 -197.125 67.75 C -207.29167 57.416669999999996 -212.375 41.666669999999996 -212.375 20.5 L -212.375 20.5 C -212.375 8.66667 -210.16667 -1.8333300000000001 -205.75 -11 C -201.33333 -20.16667 -194.70833 -27.375 -185.875 -32.625 C -177.04167 -37.875 -166.125 -40.5 -153.125 -40.5 L -153.125 -40.5 C -134.125 -40.5 -119.66667000000001 -35.208330000000004 -109.75 -24.625 C -99.83333 -14.04167 -94.875 0.3333300000000001 -94.875 18.5 L -94.875 18.5 C -94.875 32.5 -97.25 44.333330000000004 -102 54 C -106.75 63.666669999999996 -113.45833 70.95833 -122.125 75.875 C -130.79167 80.79167 -141.29167 83.25 -153.625 83.25 z M -152.875 71.75 L -152.875 71.75 C -146.875 71.75 -142 70 -138.25 66.5 C -134.5 63 -131.75 57.458330000000004 -130 49.875 C -128.25 42.291669999999996 -127.375 32.416669999999996 -127.375 20.25 L -127.375 20.25 C -127.375 4.58333 -129.58333 -7.625 -134 -16.375 C -138.41667 -25.125 -145.375 -29.5 -154.875 -29.5 L -154.875 -29.5 C -163.375 -29.5 -169.66667 -25.375 -173.75 -17.125 C -177.83333 -8.875 -179.875 2.75 -179.875 17.75 L -179.875 17.75 C -179.875 36.416669999999996 -177.625 50.125 -173.125 58.875 C -168.625 67.625 -161.875 71.91667 -152.875 71.75 z M -8.375 71.75 L -8.375 80.75 L -81.125 80.75 L -81.125 71.75 C -75.625 71.75 -71.58333 71.29167 -69 70.375 C -66.41667 69.45833 -64.70833 67.75 -63.875 65.25 C -63.04167 62.75 -62.625 59.166669999999996 -62.625 54.5 L -62.625 54.5 L -62.625 -9.5 C -62.625 -14 -63.16667 -17.41667 -64.25 -19.75 C -65.33333 -22.08333 -68.125 -23.25 -72.625 -23.25 L -72.625 -23.25 C -75.125 -23.25 -77.04167 -23.16667 -78.375 -23 C -79.70833 -22.83333 -80.375 -22.75 -80.375 -22.75 L -80.375 -22.75 L -80.375 -32 L -44.125 -39.75 L -32.875 -39.75 L -32.875 -13.75 L -32.125 -13.75 C -27.625 -19.75 -23.875 -24.79167 -20.875 -28.875 C -17.875 -32.958330000000004 -14.75 -36.041669999999996 -11.5 -38.125 C -8.25 -40.208330000000004 -4.20833 -41.25 0.625 -41.25 L 0.625 -41.25 C 6.45833 -41.25 10.83333 -39.625 13.75 -36.375 C 16.66667 -33.125 18.125 -28.75 18.125 -23.25 L 18.125 -23.25 C 18.125 -16.91667 16.70833 -12.375 13.875 -9.625 C 11.04167 -6.875 7.875 -5.5 4.375 -5.5 L 4.375 -5.5 C 1.0416699999999999 -5.5 -1.8333300000000001 -6.29167 -4.25 -7.875 C -6.66667 -9.45833 -8.70833 -11.08333 -10.375 -12.75 C -12.04167 -14.41667 -13.45833 -15.25 -14.625 -15.25 L -14.625 -15.25 C -17.45833 -15.25 -20.41667 -13.79167 -23.5 -10.875 C -26.58333 -7.95833 -29.54167 -4.5 -32.375 -0.5 L -32.375 -0.5 L -32.375 53 C -32.375 58.333330000000004 -31.625 62.333330000000004 -30.125 65 C -28.625 67.66667 -26.125 69.45833 -22.625 70.375 C -19.125 71.29167 -14.375 71.75 -8.375 71.75 z M 82.875 83.5 L 82.875 83.5 C 71.375 83.5 61.5 81.125 53.25 76.375 C 45 71.625 38.625 64.66667 34.125 55.5 C 29.625 46.333330000000004 27.375 35.166669999999996 27.375 22 L 27.375 22 C 27.375 7.66667 29.95833 -4.08333 35.125 -13.25 C 40.291669999999996 -22.41667 47.25 -29.25 56 -33.75 C 64.75 -38.25 74.29167 -40.5 84.625 -40.5 L 84.625 -40.5 C 99.625 -40.5 111.70833 -35.708330000000004 120.875 -26.125 C 130.04167 -16.54167 134.79167 -2.58333 135.125 15.75 L 135.125 15.75 L 55.375 15.75 L 55.125 4.75 L 101.625 4.75 C 101.625 -1.75 100.91667 -7.625 99.5 -12.875 C 98.08333 -18.125 95.91667 -22.25 93 -25.25 C 90.08333 -28.25 86.125 -29.75 81.125 -29.75 L 81.125 -29.75 C 72.625 -29.75 66.58333 -26.25 63 -19.25 C 59.416669999999996 -12.25 57.625 -1.5833300000000001 57.625 12.75 L 57.625 12.75 C 57.625 23.91667 59.125 32.916669999999996 62.125 39.75 C 65.125 46.583330000000004 69.29167 51.583330000000004 74.625 54.75 C 79.95833 57.916669999999996 86.20833 59.5 93.375 59.5 L 93.375 59.5 C 100.04167 59.5 105.58333 58.75 110 57.25 C 114.41667 55.75 118.25 53.625 121.5 50.875 C 124.75 48.125 127.70833 45.083330000000004 130.375 41.75 L 130.375 41.75 L 136.375 45.75 C 133.875 50.583330000000004 131.16667 55.25 128.25 59.75 C 125.33333 64.25 121.91667 68.25 118 71.75 C 114.08333 75.25 109.29167 78.08333 103.625 80.25 C 97.95833 82.41667 91.04167 83.5 82.875 83.5 z M 291.375 71.75 L 291.375 80.75 L 225.875 80.75 L 225.875 71.75 C 231.20833 71.75 235.08333 71.20833 237.5 70.125 C 239.91667 69.04167 241.45833 67.08333 242.125 64.25 C 242.79167 61.416669999999996 243.125 57.5 243.125 52.5 L 243.125 52.5 L 243.125 9.5 C 243.125 -1.8333300000000001 241.41667 -9.5 238 -13.5 C 234.58333 -17.5 229.95833 -19.5 224.125 -19.5 L 224.125 -19.5 C 220.29167 -19.5 216.66667 -18.75 213.25 -17.25 C 209.83333 -15.75 206.625 -13.875 203.625 -11.625 C 200.625 -9.375 197.875 -6.91667 195.375 -4.25 L 195.375 -4.25 L 193.625 -19.25 L 197.875 -19.25 C 203.875 -24.75 209.91667 -29.66667 216 -34 C 222.08333 -38.333330000000004 229.45833 -40.5 238.125 -40.5 L 238.125 -40.5 C 247.79167 -40.5 255.41667 -37.916669999999996 261 -32.75 C 266.58333 -27.58333 270.29167 -20.58333 272.125 -11.75 L 272.125 -11.75 C 272.45833 -9.91667 272.75 -8 273 -6 C 273.25 -4 273.375 -2 273.375 0 L 273.375 0 L 273.375 52.5 C 273.375 57.333330000000004 273.79167 61.166669999999996 274.625 64 C 275.45833 66.83333 277.125 68.83333 279.625 70 C 282.125 71.16667 286.04167 71.75 291.375 71.75 z M 215.875 71.75 L 215.875 80.75 L 150.125 80.75 L 150.125 71.75 C 155.45833 71.75 159.33333 71.25 161.75 70.25 C 164.16667 69.25 165.70833 67.41667 166.375 64.75 C 167.04167 62.083330000000004 167.375 58.416669999999996 167.375 53.75 L 167.375 53.75 L 167.375 -12.5 C 167.375 -17.16667 166.54167 -20.20833 164.875 -21.625 C 163.20833 -23.04167 160.625 -23.75 157.125 -23.75 L 157.125 -23.75 C 154.95833 -23.75 153.29167 -23.66667 152.125 -23.5 C 150.95833 -23.33333 150.375 -23.25 150.375 -23.25 L 150.375 -23.25 L 150.375 -32.5 L 186.125 -39.75 L 196.875 -39.75 L 196.875 -16 L 197.625 -9.75 L 197.625 54.25 C 197.625 58.75 198.04167 62.291669999999996 198.875 64.875 C 199.70833 67.45833 201.41667 69.25 204 70.25 C 206.58333 71.25 210.54167 71.75 215.875 71.75 z M 366.375 71.75 L 366.375 80.75 L 301.875 80.75 L 301.875 71.75 C 307.04167 71.75 310.79167 71.125 313.125 69.875 C 315.45833 68.625 316.95833 66.58333 317.625 63.75 C 318.29167 60.916669999999996 318.625 57.166669999999996 318.625 52.5 L 318.625 52.5 L 318.625 10 C 318.625 2.33333 317.83333 -3.66667 316.25 -8 C 314.66667 -12.33333 312.41667 -15.33333 309.5 -17 C 306.58333 -18.66667 303.125 -19.5 299.125 -19.5 L 299.125 -19.5 C 293.79167 -19.5 288.66667 -17.95833 283.75 -14.875 C 278.83333 -11.79167 274.45833 -8.33333 270.625 -4.5 L 270.625 -4.5 L 267.375 -18.5 L 271.375 -18.5 C 277.875 -25 284.45833 -30.29167 291.125 -34.375 C 297.79167 -38.458330000000004 304.95833 -40.5 312.625 -40.5 L 312.625 -40.5 C 323.625 -40.5 332.41667 -36.833330000000004 339 -29.5 C 345.58333 -22.16667 348.875 -10.5 348.875 5.5 L 348.875 5.5 L 348.875 52.5 C 348.875 57.166669999999996 349.25 60.958330000000004 350 63.875 C 350.75 66.79167 352.375 68.83333 354.875 70 C 357.375 71.16667 361.20833 71.75 366.375 71.75 z M 410.875 83.25 L 410.875 83.25 C 401.54167 83.25 394.08333 80.83333 388.5 76 C 382.91667 71.16667 380.125 64.08333 380.125 54.75 L 380.125 54.75 C 380.125 47.916669999999996 381.625 42.166669999999996 384.625 37.5 C 387.625 32.833330000000004 391.58333 28.91667 396.5 25.75 C 401.41667 22.58333 406.83333 19.91667 412.75 17.75 C 418.66667 15.58333 424.5 13.75 430.25 12.25 C 436 10.75 441.125 9.33333 445.625 8 L 445.625 8 L 445.625 -3.5 C 445.625 -14.33333 444.25 -21.58333 441.5 -25.25 C 438.75 -28.91667 434.125 -30.75 427.625 -30.75 L 427.625 -30.75 C 421.79167 -30.75 417.95833 -29.45833 416.125 -26.875 C 414.29167 -24.29167 413.375 -19.41667 413.375 -12.25 L 413.375 -12.25 C 413.375 -7.25 411.95833 -3.58333 409.125 -1.25 C 406.29167 1.0833300000000001 402.875 2.25 398.875 2.25 L 398.875 2.25 C 395.70833 2.25 392.66667 1 389.75 -1.5 C 386.83333 -4 385.375 -7.75 385.375 -12.75 L 385.375 -12.75 C 385.375 -17.75 387.25 -22.33333 391 -26.5 C 394.75 -30.66667 400.08333 -34.083330000000004 407 -36.75 C 413.91667 -39.416669999999996 422.04167 -40.75 431.375 -40.75 L 431.375 -40.75 C 446.375 -40.75 457.54167 -37.666669999999996 464.875 -31.5 C 472.20833 -25.33333 475.875 -15.5 475.875 -2 L 475.875 -2 L 475.875 53.25 C 475.875 58.25 476.5 61.5 477.75 63 C 479 64.5 480.95833 65.25 483.625 65.25 L 483.625 65.25 C 485.625 65.25 487.66667 64.625 489.75 63.375 C 491.83333 62.125 493.70833 60.583330000000004 495.375 58.75 L 495.375 58.75 L 500.375 63.75 C 496.20833 69.75 491.83333 74.41667 487.25 77.75 C 482.66667 81.08333 476.20833 82.75 467.875 82.75 L 467.875 82.75 C 460.04167 82.75 454.83333 81.25 452.25 78.25 C 449.66667 75.25 447.95833 70.41667 447.125 63.75 L 447.125 63.75 L 445.625 59.5 L 445.625 17.25 C 438.79167 19.25 432.75 21.41667 427.5 23.75 C 422.25 26.08333 418.16667 29.125 415.25 32.875 C 412.33333 36.625 410.875 41.75 410.875 48.25 L 410.875 48.25 C 410.875 54.416669999999996 412.08333 59.041669999999996 414.5 62.125 C 416.91667 65.20833 420.29167 66.75 424.625 66.75 L 424.625 66.75 C 428.625 66.75 432.41667 65.83333 436 64 C 439.58333 62.16667 443.625 59 448.125 54.5 L 448.125 54.5 L 449.875 66.75 L 446.375 66.75 C 442.54167 70.08333 438.95833 73 435.625 75.5 C 432.29167 78 428.75 79.91667 425 81.25 C 421.25 82.58333 416.54167 83.25 410.875 83.25 z" stroke-linecap="round" />
</g>
</g>
</g>
</svg>